<svg xmlns="http://www.w3.org/2000/svg" width="17.277" height="20" viewBox="0 0 17.277 20"><g transform="translate(-1412.661 -1047.729)"><path d="M21.1-58.271a.971.971,0,0,0,1.01-1.01V-70.739l-.079-2.428,3.415,3.732,2.541,2.507a1.04,1.04,0,0,0,.726.284.969.969,0,0,0,.987-1,1.085,1.085,0,0,0-.34-.76l-7.5-7.51a1.163,1.163,0,0,0-.533-.329H28.73a.962.962,0,0,0,1-1.01.971.971,0,0,0-1-1.021h-15.3a.96.96,0,0,0-.976,1.021.95.95,0,0,0,.976,1.01h7.431a1.077,1.077,0,0,0-.522.329l-7.51,7.51a1.119,1.119,0,0,0-.329.76.963.963,0,0,0,.987,1,1.06,1.06,0,0,0,.726-.284l2.541-2.507,3.415-3.744-.091,2.439v11.458A.974.974,0,0,0,21.1-58.271Z" transform="translate(1400.21 1126)"/></g></svg>